REM DIRINDEX 1\6,1\2\7,1\2\8,1\2\9,1\3\10,1\3\11,1\4\12,1\4\13,1\4\14,1\5\15,1\5\16,1\5\17
REM DIRNAME folder01,folder02,folder03,folder04,folder05,folder06,folder07,folder08,folder09,folder10,folder11,folder12,folder13,folder14,folder15,folder16,folder17
TITLE ""
FILE "P2Q_t2_0427-0444.mp3" MP3
  TRACK 01 AUDIO
    TITLE "7:cjc040_5110"
    INDEX 01 00:00:00
  TRACK 02 AUDIO
    TITLE "0:"
    INDEX 01 00:01:07
  TRACK 03 AUDIO
    TITLE "8:cjc040_5111"
    INDEX 01 00:01:64
  TRACK 04 AUDIO
    TITLE "0:"
    INDEX 01 00:03:57
  TRACK 05 AUDIO
    TITLE "9:cjc040_5112"
    INDEX 01 00:04:35
  TRACK 06 AUDIO
    TITLE "0:"
    INDEX 01 00:05:54
  TRACK 07 AUDIO
    TITLE "7:cjc040_5113"
    INDEX 01 00:07:33
  TRACK 08 AUDIO
    TITLE "0:"
    INDEX 01 00:08:48
  TRACK 09 AUDIO
    TITLE "8:cjc040_5114"
    INDEX 01 00:09:24
  TRACK 10 AUDIO
    TITLE "0:"
    INDEX 01 00:11:48
  TRACK 11 AUDIO
    TITLE "9:cjc040_5115"
    INDEX 01 00:12:22
  TRACK 12 AUDIO
    TITLE "0:"
    INDEX 01 00:13:37
  TRACK 13 AUDIO
    TITLE "7:cjc040_5116"
    INDEX 01 00:15:23
  TRACK 14 AUDIO
    TITLE "0:"
    INDEX 01 00:16:30
  TRACK 15 AUDIO
    TITLE "8:cjc040_5117"
    INDEX 01 00:17:08
  TRACK 16 AUDIO
    TITLE "0:"
    INDEX 01 00:19:24
  TRACK 17 AUDIO
    TITLE "9:cjc040_5118"
    INDEX 01 00:20:06
  TRACK 18 AUDIO
    TITLE "0:"
    INDEX 01 00:21:19
  TRACK 19 AUDIO
    TITLE "7:cjc040_5119"
    INDEX 01 00:23:03
  TRACK 20 AUDIO
    TITLE "0:"
    INDEX 01 00:24:16
  TRACK 21 AUDIO
    TITLE "8:cjc040_5120"
    INDEX 01 00:24:72
  TRACK 22 AUDIO
    TITLE "0:"
    INDEX 01 00:26:30
  TRACK 23 AUDIO
    TITLE "9:cjc040_5121"
    INDEX 01 00:27:12
  TRACK 24 AUDIO
    TITLE "0:"
    INDEX 01 00:28:27
  TRACK 25 AUDIO
    TITLE "7:cjc040_5122"
    INDEX 01 00:30:10
  TRACK 26 AUDIO
    TITLE "0:"
    INDEX 01 00:31:12
  TRACK 27 AUDIO
    TITLE "8:cjc040_5123"
    INDEX 01 00:31:71
  TRACK 28 AUDIO
    TITLE "0:"
    INDEX 01 00:33:13
  TRACK 29 AUDIO
    TITLE "9:cjc040_5124"
    INDEX 01 00:33:69
  TRACK 30 AUDIO
    TITLE "0:"
    INDEX 01 00:35:00
  TRACK 31 AUDIO
    TITLE "7:cjc040_5125"
    INDEX 01 00:36:62
  TRACK 32 AUDIO
    TITLE "0:"
    INDEX 01 00:37:73
  TRACK 33 AUDIO
    TITLE "8:cjc040_5126"
    INDEX 01 00:38:55
  TRACK 34 AUDIO
    TITLE "0:"
    INDEX 01 00:39:66
  TRACK 35 AUDIO
    TITLE "9:cjc040_5127"
    INDEX 01 00:40:44
  TRACK 36 AUDIO
    TITLE "0:"
    INDEX 01 00:41:57
  TRACK 37 AUDIO
    TITLE "7:cjc040_5128"
    INDEX 01 00:43:42
  TRACK 38 AUDIO
    TITLE "0:"
    INDEX 01 00:44:61
  TRACK 39 AUDIO
    TITLE "8:cjc040_5129"
    INDEX 01 00:45:45
  TRACK 40 AUDIO
    TITLE "0:"
    INDEX 01 00:46:60
  TRACK 41 AUDIO
    TITLE "9:cjc040_5130"
    INDEX 01 00:47:44
  TRACK 42 AUDIO
    TITLE "0:"
    INDEX 01 00:48:69
  TRACK 43 AUDIO
    TITLE "7:cjc040_5131"
    INDEX 01 00:50:48
  TRACK 44 AUDIO
    TITLE "0:"
    INDEX 01 00:51:69
  TRACK 45 AUDIO
    TITLE "8:cjc040_5132"
    INDEX 01 00:52:43
  TRACK 46 AUDIO
    TITLE "0:"
    INDEX 01 00:55:06
  TRACK 47 AUDIO
    TITLE "9:cjc040_5133"
    INDEX 01 00:55:63
  TRACK 48 AUDIO
    TITLE "0:"
    INDEX 01 00:57:09
  TRACK 49 AUDIO
    TITLE "7:cjc040_5134"
    INDEX 01 00:58:69
  TRACK 50 AUDIO
    TITLE "0:"
    INDEX 01 01:00:06
  TRACK 51 AUDIO
    TITLE "8:cjc040_5135"
    INDEX 01 01:00:59
  TRACK 52 AUDIO
    TITLE "0:"
    INDEX 01 01:01:72
  TRACK 53 AUDIO
    TITLE "9:cjc040_5136"
    INDEX 01 01:02:55
  TRACK 54 AUDIO
    TITLE "0:"
    INDEX 01 01:03:67
  TRACK 55 AUDIO
    TITLE "7:cjc040_5137"
    INDEX 01 01:05:46
  TRACK 56 AUDIO
    TITLE "0:"
    INDEX 01 01:06:36
  TRACK 57 AUDIO
    TITLE "8:cjc040_5138"
    INDEX 01 01:07:25
  TRACK 58 AUDIO
    TITLE "0:"
    INDEX 01 01:11:33
  TRACK 59 AUDIO
    TITLE "9:cjc040_5139"
    INDEX 01 01:12:13
  TRACK 60 AUDIO
    TITLE "0:"
    INDEX 01 01:13:12
  TRACK 61 AUDIO
    TITLE "7:cjc040_5140"
    INDEX 01 01:14:72
  TRACK 62 AUDIO
    TITLE "0:"
    INDEX 01 01:16:16
  TRACK 63 AUDIO
    TITLE "8:cjc040_5141"
    INDEX 01 01:16:67
  TRACK 64 AUDIO
    TITLE "0:"
    INDEX 01 01:23:20
  TRACK 65 AUDIO
    TITLE "9:cjc040_5142"
    INDEX 01 01:24:00
  TRACK 66 AUDIO
    TITLE "0:"
    INDEX 01 01:25:25
  TRACK 67 AUDIO
    TITLE "7:cjc040_5143"
    INDEX 01 01:27:06
  TRACK 68 AUDIO
    TITLE "0:"
    INDEX 01 01:28:12
  TRACK 69 AUDIO
    TITLE "8:cjc040_5144"
    INDEX 01 01:28:65
  TRACK 70 AUDIO
    TITLE "0:"
    INDEX 01 01:30:24
  TRACK 71 AUDIO
    TITLE "9:cjc040_5145"
    INDEX 01 01:31:00
  TRACK 72 AUDIO
    TITLE "0:"
    INDEX 01 01:32:15
  TRACK 73 AUDIO
    TITLE "7:cjc040_5146"
    INDEX 01 01:33:72
  TRACK 74 AUDIO
    TITLE "0:"
    INDEX 01 01:35:06
  TRACK 75 AUDIO
    TITLE "8:cjc040_5147"
    INDEX 01 01:35:61
  TRACK 76 AUDIO
    TITLE "0:"
    INDEX 01 01:38:28
  TRACK 77 AUDIO
    TITLE "9:cjc040_5148"
    INDEX 01 01:39:02
  TRACK 78 AUDIO
    TITLE "0:"
    INDEX 01 01:40:15
  TRACK 79 AUDIO
    TITLE "7:cjc040_5149"
    INDEX 01 01:41:71
  TRACK 80 AUDIO
    TITLE "0:"
    INDEX 01 01:42:69
  TRACK 81 AUDIO
    TITLE "8:cjc040_5150"
    INDEX 01 01:43:51
  TRACK 82 AUDIO
    TITLE "0:"
    INDEX 01 01:45:10
  TRACK 83 AUDIO
    TITLE "9:cjc040_5151"
    INDEX 01 01:45:63
  TRACK 84 AUDIO
    TITLE "0:"
    INDEX 01 01:46:68
  TRACK 85 AUDIO
    TITLE "7:cjc040_5152"
    INDEX 01 01:48:52
  TRACK 86 AUDIO
    TITLE "0:"
    INDEX 01 01:49:63
  TRACK 87 AUDIO
    TITLE "8:cjc040_5153"
    INDEX 01 01:50:45
  TRACK 88 AUDIO
    TITLE "0:"
    INDEX 01 01:55:63
  TRACK 89 AUDIO
    TITLE "9:cjc040_5154"
    INDEX 01 01:56:36
  TRACK 90 AUDIO
    TITLE "0:"
    INDEX 01 01:57:51
  TRACK 91 AUDIO
    TITLE "7:cjc040_5155"
    INDEX 01 01:59:30
  TRACK 92 AUDIO
    TITLE "0:"
    INDEX 01 02:00:39
  TRACK 93 AUDIO
    TITLE "8:cjc040_5156"
    INDEX 01 02:01:21
  TRACK 94 AUDIO
    TITLE "0:"
    INDEX 01 02:02:66
  TRACK 95 AUDIO
    TITLE "9:cjc040_5157"
    INDEX 01 02:03:45
  TRACK 96 AUDIO
    TITLE "0:"
    INDEX 01 02:04:57
  TRACK 97 AUDIO
    TITLE "7:cjc040_5158"
    INDEX 01 02:06:34
  TRACK 98 AUDIO
    TITLE "0:"
    INDEX 01 02:08:00
  TRACK 99 AUDIO
    TITLE "8:cjc040_5159"
    INDEX 01 02:08:50
  TRACK 100 AUDIO
    TITLE "0:"
    INDEX 01 02:11:43
  TRACK 101 AUDIO
    TITLE "9:cjc040_5160"
    INDEX 01 02:12:29
  TRACK 102 AUDIO
    TITLE "0:"
    INDEX 01 02:13:63
  TRACK 103 AUDIO
    TITLE "7:cjc040_5161"
    INDEX 01 02:15:49
  TRACK 104 AUDIO
    TITLE "0:"
    INDEX 01 02:16:58
  TRACK 105 AUDIO
    TITLE "8:cjc040_5162"
    INDEX 01 02:17:40
  TRACK 106 AUDIO
    TITLE "0:"
    INDEX 01 02:19:01
  TRACK 107 AUDIO
    TITLE "9:cjc040_5163"
    INDEX 01 02:19:52
  TRACK 108 AUDIO
    TITLE "0:"
    INDEX 01 02:20:61
